<svg width="96" height="96" viewBox="0 0 96 96" fill="none" xmlns="http://www.w3.org/2000/svg">
<path d="M93.5203 20.8329L85.5521 17.4261C81.0441 15.4995 75.9593 15.9056 71.6874 17.7534L75.1078 8.76356C75.8544 6.771 75.6838 4.66163 74.6228 3.11475C73.7186 1.818 72.2634 1.04419 70.7044 1.04419C69.5903 1.04419 68.5028 1.43756 67.5591 2.17125L54.5848 12.21C54.5454 12.2494 54.4931 12.276 54.4538 12.3276H39.4879C39.4485 12.276 39.3962 12.2494 39.3568 12.21L26.3961 2.17125C25.4394 1.43738 24.3512 1.04419 23.2378 1.04419C21.678 1.04419 20.2236 1.818 19.3194 3.11475C18.2576 4.66163 18.087 6.771 18.8473 8.76356L21.9276 16.8885C18.2183 15.8269 14.1557 15.8531 10.4601 17.4259L2.49207 20.8328C-0.076497 21.9332 -0.770809 24.6594 0.933003 26.9263L6.24075 34.0031C9.50363 38.3543 14.6409 40.6478 19.6204 40.9753L21.7046 63.9221C20.6428 65.1939 19.8825 66.6878 19.5158 68.3128L18.6508 72.1654L18.3621 73.4107C17.733 76.1629 18.2318 78.9936 19.7779 81.3917C20.5509 82.6104 21.5734 83.6723 22.7655 84.5241C22.7261 85.2707 22.8574 86.0181 23.1589 86.7122L25.0854 91.1286C26.3171 93.9587 29.7641 94.9554 32.5941 94.9554H61.3598C64.1777 94.9554 67.6376 93.9587 68.8691 91.1286L70.7957 86.7122C71.0968 86.0181 71.2286 85.2707 71.1891 84.5362C72.3547 83.685 73.3772 82.6232 74.1639 81.3915C75.7101 78.9934 76.2081 76.1627 75.5919 73.4235L75.3039 72.1524L74.4126 68.3128C74.0456 66.6879 73.2984 65.2198 72.2501 63.9488L74.3336 41.0018C79.9035 41.2504 86.0368 38.9576 89.7589 34.0031L95.0661 26.9263C96.7703 24.6596 96.0761 21.9334 93.5203 20.8329ZM65.2656 89.5562C64.8857 90.4082 63.2608 91.0243 61.3599 91.0243H32.5944C30.6943 91.0243 29.0694 90.4082 28.6896 89.5562L27.3784 86.5686C28.2962 86.7786 29.2526 86.8832 30.2228 86.8832H63.7322C64.7023 86.8832 65.6588 86.7786 66.5631 86.5815L65.2656 89.5562ZM30.6549 82.9509H30.2229C28.8071 82.9509 27.4967 82.6371 26.3438 82.0868C25.6883 81.7845 25.0986 81.4054 24.5741 80.9591C23.9844 80.4611 23.4735 79.8981 23.0803 79.269L22.7136 75.1929L22.5036 72.9131L23.3554 69.1911C24.1155 65.8106 27.4838 63.3861 31.3757 63.3861H35.7133H58.2411H62.5659C66.4716 63.3861 69.8132 65.8106 70.5863 69.1911L71.4381 72.9131L71.2418 75.1673L70.875 79.2431C70.8613 79.2561 70.8613 79.269 70.8484 79.2818C70.455 79.8979 69.957 80.4611 69.3675 80.9462C68.8436 81.4056 68.2541 81.7845 67.5986 82.0868C66.4586 82.6371 65.1474 82.9509 63.7324 82.9509H63.2867H30.6549ZM43.839 43.8722V15.2108H50.1034V43.8724C50.1034 49.4683 51.7808 54.9193 54.9131 59.4548H39.0422C42.1609 54.9191 43.839 49.4681 43.839 43.8722ZM70.7044 4.9755C71.4774 4.9755 71.9231 6.06394 71.4251 7.37438L68.1752 15.9056C65.8028 14.3458 63.1296 13.2848 60.3253 12.7474L69.9572 5.27719C70.2323 5.06794 70.4816 4.9755 70.7044 4.9755ZM64.6106 36.9653C64.6106 36.9653 64.6236 36.9653 64.6236 36.9789C65.3443 37.2936 65.9469 37.8173 66.3533 38.4857C66.7071 39.0624 66.9171 39.7438 66.9171 40.4646V42.3253C66.9171 44.4225 65.2132 46.1256 63.1168 46.1256H61.5964C59.4863 46.1256 57.7824 44.4225 57.7824 42.3253V40.4646C57.7824 38.3674 59.4863 36.6643 61.5964 36.6643H63.1168C63.6407 36.6645 64.1514 36.7689 64.6106 36.9653ZM36.159 42.3255C36.159 44.4227 34.4559 46.1258 32.3588 46.1258H30.8383C28.7419 46.1258 27.0381 44.4227 27.0381 42.3255V40.4648C27.0381 40.2684 27.051 40.0714 27.0904 39.8751C27.3654 38.0537 28.9382 36.6645 30.8383 36.6645H31.6509H32.3588C34.4559 36.6645 36.159 38.3676 36.159 40.4648V42.3255ZM25.767 15.9056L22.5171 7.37438C22.0191 6.06394 22.4648 4.9755 23.2378 4.9755C23.4608 4.9755 23.7229 5.06794 23.9844 5.27719L33.6298 12.7474C30.8126 13.2848 28.1387 14.3458 25.767 15.9056ZM75.5136 27.9233C75.54 27.6086 75.5537 27.2942 75.5537 26.9796C75.5537 25.7085 75.3173 24.4367 74.8459 23.2575C76.4049 22.6414 78.7119 22.1833 81.1883 23.2316L84.3206 24.5678C85.9328 25.2619 86.3784 26.9923 85.3037 28.4338L83.22 31.1994C81.6604 33.2829 79.5769 34.0819 78.1086 34.3836C77.0338 34.6058 75.9334 34.6457 74.9237 34.4882L75.5136 27.9233ZM18.4281 27.9233L19.0307 34.5407C18.6508 34.5148 18.2706 34.4627 17.8907 34.3838C16.4233 34.0821 14.3528 33.2831 12.7929 31.1996L10.7094 28.434C9.621 26.9925 10.0667 25.2621 11.6916 24.5679L14.8112 23.2318C16.4361 22.5368 17.9953 22.4974 19.3193 22.7338C18.7031 24.0707 18.3885 25.5122 18.3885 26.9798C18.3887 27.2942 18.4016 27.6088 18.4281 27.9233Z" fill="#4E301B"/>
<path d="M31.9789 39.0233H31.2187C30.1699 39.0233 29.3186 39.8751 29.3186 40.9361V41.8539C29.3186 42.915 30.1697 43.7541 31.2187 43.7541H31.9789C33.027 43.7541 33.879 42.9152 33.879 41.8539V40.9361C33.8792 39.8751 33.0272 39.0233 31.9789 39.0233ZM30.6686 40.9884C30.6686 40.4646 31.1006 40.0455 31.6252 40.0455H32.0049C32.2408 40.0455 32.4506 40.1243 32.6076 40.2683L30.8651 42.0109C30.7341 41.8669 30.6688 41.6698 30.6688 41.4606V40.9884H30.6686Z" fill="#4E301B"/>
<path d="M60.0761 40.9361V41.8539C60.0761 42.915 60.9152 43.7541 61.9763 43.7541H62.7364C63.7845 43.7541 64.6365 42.9152 64.6365 41.8539V40.9361C64.6365 39.8751 63.7847 39.0233 62.7364 39.0233H61.9763C60.9152 39.0233 60.0761 39.8751 60.0761 40.9361ZM61.1621 40.9884C61.1621 40.4646 61.5951 40.0455 62.1195 40.0455H62.4994C62.7351 40.0455 62.9451 40.1243 63.1026 40.2683L61.3594 42.0109C61.2283 41.8669 61.1623 41.6698 61.1623 41.4606V40.9884H61.1621Z" fill="#4E301B"/>
<path d="M40.89 72.1269L37.0108 70.6588L36.8934 67.4216C36.8797 67.0283 36.5917 66.7009 36.1986 66.6221L36.0939 66.6092L35.5832 66.6356C35.1504 66.6486 34.7835 66.9759 34.7312 67.4087L34.0104 74.3014C33.9576 74.7341 34.2332 75.1275 34.6524 75.2321L40.5232 76.7003C40.7854 76.7526 41.0606 76.6736 41.2569 76.5034C41.4669 76.32 41.5723 76.0712 41.5586 75.7961L41.31 72.8085C41.2961 72.5198 41.1394 72.2702 40.89 72.1269Z" fill="#4E301B"/>
<path d="M58.3594 66.6358L57.8616 66.6094L57.7434 66.6223C57.3508 66.7011 57.0621 67.0284 57.0491 67.4218L56.9437 70.659L53.0518 72.1271C52.8032 72.2704 52.6584 72.5198 52.6326 72.8085L52.3969 75.7961C52.3702 76.0712 52.4749 76.32 52.6849 76.5034C52.8812 76.6738 53.1562 76.7527 53.4186 76.7002L59.2894 75.2321C59.7094 75.1275 59.9844 74.7341 59.9451 74.3014L59.2114 67.4087C59.1589 66.9761 58.7921 66.6487 58.3594 66.6358Z" fill="#4E301B"/>
</svg>
